<svg xmlns="http://www.w3.org/2000/svg" width="300" height="445" viewBox="0 0 300 445">
  <!-- Background -->
  <defs>
    <linearGradient id="bg" x1="0%" y1="0%" x2="100%" y2="100%">
      <stop offset="0%" style="stop-color:#1a1a2e;stop-opacity:1" />
      <stop offset="100%" style="stop-color:#16213e;stop-opacity:1" />
    </linearGradient>
  </defs>
  <rect width="300" height="445" fill="url(#bg)" rx="8"/>

  <!-- Film strip top -->
  <rect x="0" y="0" width="300" height="40" fill="#0f0f1a" rx="4"/>
  <rect x="10" y="8" width="24" height="24" fill="#2a2a4a" rx="3"/>
  <rect x="44" y="8" width="24" height="24" fill="#2a2a4a" rx="3"/>
  <rect x="78" y="8" width="24" height="24" fill="#2a2a4a" rx="3"/>
  <rect x="112" y="8" width="24" height="24" fill="#2a2a4a" rx="3"/>
  <rect x="146" y="8" width="24" height="24" fill="#2a2a4a" rx="3"/>
  <rect x="180" y="8" width="24" height="24" fill="#2a2a4a" rx="3"/>
  <rect x="214" y="8" width="24" height="24" fill="#2a2a4a" rx="3"/>
  <rect x="248" y="8" width="24" height="24" fill="#2a2a4a" rx="3"/>

  <!-- Film strip bottom -->
  <rect x="0" y="405" width="300" height="40" fill="#0f0f1a" rx="4"/>
  <rect x="10" y="413" width="24" height="24" fill="#2a2a4a" rx="3"/>
  <rect x="44" y="413" width="24" height="24" fill="#2a2a4a" rx="3"/>
  <rect x="78" y="413" width="24" height="24" fill="#2a2a4a" rx="3"/>
  <rect x="112" y="413" width="24" height="24" fill="#2a2a4a" rx="3"/>
  <rect x="146" y="413" width="24" height="24" fill="#2a2a4a" rx="3"/>
  <rect x="180" y="413" width="24" height="24" fill="#2a2a4a" rx="3"/>
  <rect x="214" y="413" width="24" height="24" fill="#2a2a4a" rx="3"/>
  <rect x="248" y="413" width="24" height="24" fill="#2a2a4a" rx="3"/>

  <!-- Camera icon circle -->
  <circle cx="150" cy="210" r="55" fill="#2a2a4a" opacity="0.8"/>
  <circle cx="150" cy="210" r="35" fill="#1a1a3a"/>
  <circle cx="150" cy="210" r="22" fill="#2a2a4a"/>
  <circle cx="150" cy="210" r="12" fill="#3a3a6a"/>

  <!-- Text -->
  <text x="150" y="295" 
        fill="#4a4a7a" 
        font-size="16" 
        font-family="sans-serif"
        font-weight="600"
        text-anchor="middle"
        letter-spacing="2">
    NO POSTER
  </text>
  <text x="150" y="318" 
        fill="#3a3a5a" 
        font-size="12" 
        font-family="sans-serif"
        text-anchor="middle">
    Available
  </text>
</svg>